<svg xmlns="http://www.w3.org/2000/svg" viewBox="0 0 64 64">
  <rect width="64" height="64" rx="18" fill="#10b981" />
  <path
    d="M18 39a7 7 0 1 0 0 14 7 7 0 0 0 0-14Zm0 4a3 3 0 1 1 0 6 3 3 0 0 1 0-6Zm28-4a7 7 0 1 0 0 14 7 7 0 0 0 0-14Zm0 4a3 3 0 1 1 0 6 3 3 0 0 1 0-6Zm-15-22h9c3.7 0 6.6 3.1 6.4 6.8l-.1 1.7H52c1.1 0 2 .9 2 2s-.9 2-2 2h-7.5c-.7 3.2-3.6 5.5-6.9 5.5H28.7l-1.7 4H36c1.1 0 2 .9 2 2s-.9 2-2 2H22.8c-1.5 0-2.5-1.6-1.8-3l4.4-10.4-3.7-8.7H18c-1.1 0-2-.9-2-2s.9-2 2-2h5.1c.8 0 1.5.5 1.8 1.2l1.5 3.5h14.9l.1-1.1c.1-1.4-1-2.6-2.4-2.6h-9c-1.1 0-2-.9-2-2s.9-2 2-2Z"
    fill="#ffffff"
  />
</svg>
